<?xml version="1.0" encoding="UTF-8"?>
<svg id="Layer_1" data-name="Layer 1" xmlns="http://www.w3.org/2000/svg" viewBox="0 0 500 250">
  <defs>
    <style>
      .cls-1 {
        fill: #1d4d25;
      }
    </style>
  </defs>
  <g>
    <path class="cls-1" d="M92.82,96.42c0,16.35-6.02,25.39-24.44,25.39-13.51,0-23.84-6.63-23.84-25.47,0-7.23-.09-16.78-.26-19.19-.77-8.61-5.16-8.35-5.16-12.31,0-1.89.95-3.27,3.61-3.27,3.7,0,7.4.26,11.02.26s7.4-.26,10.84-.26c2.58,0,3.61,1.38,3.61,3.27,0,3.96-3.87,3.7-4.91,12.31-.17,1.89-.34,5.77-.34,16.61,0,9.04,2.84,14.03,9.72,14.03,3.7,0,6.11-1.55,7.4-4.22.77-1.55,1.46-6.11,1.46-15.4,0-5.59-.26-12.22-2.15-16.35-1.46-3.27-3.96-4.3-3.96-6.97,0-1.89.95-3.27,3.61-3.27,2.41,0,5.25.26,7.23.26,2.41,0,5.51-.26,7.57-.26,2.58,0,3.53,1.38,3.53,3.27,0,4.04-3.79,2.93-4.47,11.53-.17,2.07-.26,6.28-.26,8.26,0,4.47.17,8.26.17,11.79Z"/>
    <path class="cls-1" d="M124.92,103.22c0,4.48,1.29,6.8,2.58,8.95,1.29,2.15,3.27,3.27,3.27,5.42s-1.81,3.01-3.96,3.01c-3.53,0-7.4-.26-10.93-.26s-8.26.26-11.02.26-4.04-1.2-4.04-3.01c0-3.53,4.13-3.7,5.08-9.81.52-3.1.69-8.35.69-18.76,0-7.31-.09-9.47-.26-11.79-.77-8.61-5.08-8.35-5.08-12.39,0-1.89.95-3.27,3.61-3.27,6.54,0,7.31.26,13.68.26,4.91,0,11.27-.34,16.09-.34,10.76,0,19.1,4.22,19.1,15.49,0,5.42-2.84,10.84-11.53,14.2-.17.09-.52.26-.52.6,0,.17.09.52.52.69,5.59,2.5,9.47,7.4,12.82,14.2,1.72,3.44,3.36,5.94,4.65,7.23,1.55,1.63,2.32,1.81,2.32,3.7,0,2.41-1.55,3.01-3.18,3.01-1.98,0-7.57-.26-9.72-.26-4.13,0-8.61.26-10.15.26-2.75,0-4.47-1.46-4.47-3.36,0-1.72.95-2.67.95-4.73,0-3.96-2.93-11.1-6.02-13.86-.77-.69-1.55-1.12-2.32-1.12-1.29,0-2.15,1.98-2.15,5.25v.43ZM126.73,71.47c-1.29,0-1.72.69-1.72,7.23v1.46c0,4.39.17,6.97,3.1,6.97,2.58,0,4.91-2.41,4.91-7.31,0-4.65-2.84-8.35-6.28-8.35Z"/>
    <path class="cls-1" d="M163.64,117.6c0-3.53,4.13-3.7,5.08-9.81.52-3.1.69-8.35.69-18.76,0-7.31-.09-9.47-.26-11.79-.77-8.61-5.08-8.35-5.08-12.39,0-1.89.95-3.27,3.61-3.27,5.16,0,10.33.26,15.49.26,4.47,0,8.78-.26,13.43-.26,8.52,0,17.55,3.79,17.55,13.94,0,5.51-3.53,10.24-7.31,12.05-.17.09-.43.26-.43.52s.26.34.43.43c5.94,2.24,11.02,7.49,11.02,14.54,0,15.06-12.31,17.56-22.98,17.56-4.47,0-10.24-.26-14.8-.26s-7.92.26-12.39.26c-2.67,0-4.04-1.2-4.04-3.01ZM187.82,81.71c0,1.64.52,1.89,2.67,1.89,1.55,0,2.75-.52,3.61-1.38,1.03-1.12,1.55-2.84,1.55-4.91,0-4.13-2.75-6.28-5.94-6.28-.95,0-1.89.43-1.89,1.81v8.86ZM192.81,93.76c-1.21-.69-2.58-1.03-3.79-1.03-1.12,0-1.21.86-1.21,5.59v6.88c0,4.65.77,5.25,3.36,5.25,4.65,0,6.11-3.27,6.11-8.09,0-4.39-2.07-7.23-4.47-8.61Z"/>
    <path class="cls-1" d="M235.49,78.78c1.38-3.7,2.24-7.66,2.75-10.41.86-4.22,9.98-8,13.34-8,2.93,0,3.96,1.98,4.99,4.65l16.18,41.39c.65,1.64,1.64,3.87,3.96,6.37.95,1.03,2.58,2.5,2.58,4.13,0,2.84-2.07,3.7-6.28,3.7-2.75,0-5.42-.26-10.41-.26s-8.17.26-11.27.26-4.56-1.29-4.56-3.36c0-2.93,5.59-4.3,5.59-9.12,0-.77-.26-1.21-.69-1.89-.26-.43-1.03-.77-1.72-.77h-11.1c-1.12,0-2.07.43-2.58.95-.43.43-1.21,1.21-1.21,2.93,0,4.22,4.73,5.34,4.73,8.18,0,1.72-1.03,3.1-4.39,3.1-2.32,0-4.91-.26-7.4-.26s-3.96.26-6.28.26-3.44-1.12-3.44-3.01c0-3.27,3.53-2.93,6.88-11.7l10.33-27.11ZM246.77,95.48c1.03,0,1.29-.34,1.29-.86,0-1.38-1.55-6.37-3.27-9.38-.26-.52-.69-1.03-.95-1.03-.34,0-.69.52-.95,1.03-1.55,2.75-3.44,8.18-3.44,9.38,0,.52.26.86,1.21.86h6.11Z"/>
    <path class="cls-1" d="M293.92,61.83c3.1,0,4.82.09,6.11.77,1.81.86,3.01,2.75,6.45,6.71l12.91,14.72c2.32,2.67,3.87,4.22,4.13,4.22.6,0,.69-.52.69-1.2,0-5.59-.6-11.7-2.58-15.23-1.89-3.44-4.05-4.3-4.05-6.97,0-1.89.95-3.27,3.61-3.27,2.41,0,5.25.26,7.23.26,2.41,0,5.51-.26,7.57-.26,2.58,0,3.53,1.38,3.53,3.27,0,4.04-3.79,2.93-4.47,11.53-.17,2.07-.26,6.28-.26,8.26.09,23.49.95,20.48.95,29.78,0,3.61-3.1,6.71-8.78,6.71-1.21,0-3.27-1.12-5.16-3.27l-22.12-25.47c-1.21-1.38-1.72-1.98-2.15-1.98-.69,0-.77,1.12-.77,2.5,0,7.31,1.12,13.86,2.93,17.47,1.89,3.7,4.04,4.39,4.04,6.97,0,1.89-.95,3.27-3.61,3.27-2.84,0-5.25-.26-7.23-.26-2.41,0-5.77.26-8.52.26-2.58,0-3.53-1.38-3.53-3.27,0-4.05,4.73-2.93,5.42-11.53.17-2.07.34-6.88.34-16.78,0-7.31-.09-9.47-.26-11.79-.77-8.61-5.08-8.35-5.08-12.39,0-1.89.95-3.27,3.61-3.27,1.98,0,6.37.26,9.04.26Z"/>
  </g>
  <g>
    <path class="cls-1" d="M92.46,164.41c0,16.24-5.98,25.22-24.28,25.22-13.42,0-23.68-6.58-23.68-25.3,0-7.18-.09-16.67-.26-19.06-.77-8.55-5.13-8.29-5.13-12.22,0-1.88.94-3.25,3.59-3.25,3.68,0,7.35.26,10.94.26s7.35-.26,10.77-.26c2.56,0,3.59,1.37,3.59,3.25,0,3.93-3.85,3.68-4.87,12.22-.17,1.88-.34,5.73-.34,16.5,0,8.98,2.82,13.93,9.66,13.93,3.68,0,6.07-1.54,7.35-4.19.77-1.54,1.45-6.07,1.45-15.3,0-5.56-.26-12.14-2.14-16.24-1.45-3.25-3.93-4.27-3.93-6.92,0-1.88.94-3.25,3.59-3.25,2.39,0,5.21.26,7.18.26,2.39,0,5.47-.26,7.52-.26,2.56,0,3.5,1.37,3.5,3.25,0,4.02-3.76,2.91-4.45,11.46-.17,2.05-.26,6.24-.26,8.21,0,4.45.17,8.21.17,11.71Z"/>
    <path class="cls-1" d="M113.4,130.05c3.08,0,4.79.09,6.07.77,1.8.85,2.99,2.74,6.41,6.67l12.82,14.62c2.31,2.65,3.85,4.19,4.1,4.19.6,0,.68-.51.68-1.2,0-5.56-.6-11.63-2.56-15.13-1.88-3.42-4.02-4.27-4.02-6.92,0-1.88.94-3.25,3.59-3.25,2.39,0,5.21.26,7.18.26,2.39,0,5.47-.26,7.52-.26,2.56,0,3.5,1.37,3.5,3.25,0,4.02-3.76,2.91-4.45,11.46-.17,2.05-.26,6.24-.26,8.21.09,23.34.94,20.35.94,29.58,0,3.59-3.08,6.67-8.72,6.67-1.2,0-3.25-1.11-5.13-3.25l-21.97-25.3c-1.2-1.37-1.71-1.97-2.14-1.97-.68,0-.77,1.11-.77,2.48,0,7.27,1.11,13.76,2.91,17.35,1.88,3.68,4.02,4.36,4.02,6.92,0,1.88-.94,3.25-3.59,3.25-2.82,0-5.21-.26-7.18-.26-2.39,0-5.73.26-8.46.26-2.56,0-3.5-1.37-3.5-3.25,0-4.02,4.7-2.91,5.39-11.46.17-2.05.34-6.84.34-16.67,0-7.27-.09-9.4-.26-11.71-.77-8.55-5.04-8.29-5.04-12.31,0-1.88.94-3.25,3.59-3.25,1.97,0,6.33.26,8.98.26Z"/>
    <path class="cls-1" d="M198.46,139.54c0-2.74-2.82-3.85-2.82-6.67,0-1.71,1.45-3.08,4.27-3.08,2.31,0,5.73.26,8.21.26s4.96-.26,7.27-.26c3.59,0,5.9.17,5.9,3.33,0,2.82-3.51,3.42-6.84,6.07-4.19,3.33-8.04,6.84-13.34,13.68-.17.26-.51.6-.51.94,0,.17.09.34.51.51,8.29,3.08,12.22,11.46,15.22,19.32,1.37,3.59,3.16,6.41,5.04,8.21,1.62,1.54,2.57,1.71,2.57,3.59,0,2.39-1.54,2.99-3.16,2.99-1.97,0-8.21-.26-10.34-.26-4.1,0-8.55.26-10.09.26-2.74,0-4.45-1.45-4.45-3.33,0-1.71.94-2.65.94-4.7,0-4.79-4.36-14.1-8.29-14.1-1.28,0-2.14,1.2-2.14,4.45v.43c0,4.45,1.28,6.75,2.56,8.89,1.28,2.14,3.25,3.25,3.25,5.39s-1.71,2.99-3.93,2.99c-4.19,0-7.44-.26-10.94-.26s-7.35.26-10.86.26c-2.65,0-4.02-1.37-4.02-2.99,0-3.59,4.19-3.76,5.13-9.92.43-2.99.6-8.29.6-18.46,0-7.18,0-9.4-.17-11.8-.77-8.55-5.13-8.29-5.13-12.22,0-1.88.94-3.25,3.59-3.25,3.68,0,7.35.26,10.94.26s7.35-.26,10.77-.26c2.56,0,3.59,1.37,3.59,3.25,0,2.56-2.39,4.27-3.68,6.75-.85,1.62-1.97,3.85-1.97,8.12,0,4.96.17,7.35.68,7.35,1.2,0,11.63-12.22,11.63-15.73Z"/>
    <path class="cls-1" d="M249.66,171.17c0,4.45,1.28,6.75,2.56,8.89,1.28,2.14,3.25,3.25,3.25,5.39s-1.79,2.99-3.93,2.99c-3.51,0-7.35-.26-10.86-.26s-8.21.26-10.94.26-4.02-1.2-4.02-2.99c0-3.5,4.1-3.68,5.04-9.75.51-3.08.68-8.29.68-18.64,0-7.27-.09-9.4-.26-11.71-.77-8.55-5.04-8.29-5.04-12.31,0-1.88.94-3.25,3.59-3.25,6.5,0,7.27.26,13.59.26,4.87,0,11.2-.34,15.99-.34,10.68,0,18.98,4.19,18.98,15.39,0,5.39-2.82,10.77-11.46,14.11-.17.09-.51.26-.51.6,0,.17.09.51.51.68,5.56,2.48,9.4,7.35,12.74,14.1,1.71,3.42,3.33,5.9,4.62,7.18,1.54,1.62,2.31,1.8,2.31,3.68,0,2.39-1.54,2.99-3.16,2.99-1.97,0-7.52-.26-9.66-.26-4.1,0-8.55.26-10.09.26-2.74,0-4.45-1.45-4.45-3.33,0-1.71.94-2.65.94-4.7,0-3.93-2.91-11.03-5.98-13.76-.77-.68-1.54-1.11-2.31-1.11-1.28,0-2.14,1.97-2.14,5.21v.43ZM251.45,139.62c-1.28,0-1.71.68-1.71,7.18v1.45c0,4.36.17,6.92,3.08,6.92,2.56,0,4.87-2.39,4.87-7.27,0-4.62-2.82-8.29-6.24-8.29Z"/>
    <path class="cls-1" d="M304.45,146.89c1.37-3.68,2.22-7.61,2.74-10.34.85-4.19,9.92-7.95,13.25-7.95,2.91,0,3.93,1.97,4.96,4.62l16.07,41.12c.64,1.62,1.62,3.85,3.93,6.33.94,1.03,2.56,2.48,2.56,4.1,0,2.82-2.05,3.68-6.24,3.68-2.74,0-5.39-.26-10.34-.26s-8.12.26-11.2.26-4.53-1.28-4.53-3.33c0-2.91,5.56-4.27,5.56-9.06,0-.77-.26-1.2-.68-1.88-.26-.43-1.03-.77-1.71-.77h-11.03c-1.11,0-2.05.43-2.56.94-.43.43-1.2,1.2-1.2,2.91,0,4.19,4.7,5.3,4.7,8.12,0,1.71-1.03,3.08-4.36,3.08-2.31,0-4.87-.26-7.35-.26s-3.93.26-6.24.26-3.42-1.11-3.42-2.99c0-3.25,3.51-2.91,6.84-11.63l10.26-26.93ZM315.65,163.47c1.03,0,1.28-.34,1.28-.85,0-1.37-1.54-6.33-3.25-9.32-.26-.51-.68-1.03-.94-1.03-.34,0-.68.51-.94,1.03-1.54,2.74-3.42,8.12-3.42,9.32,0,.51.26.85,1.2.85h6.07Z"/>
    <path class="cls-1" d="M402.41,164.41c0,16.24-5.98,25.22-24.28,25.22-13.42,0-23.68-6.58-23.68-25.3,0-7.18-.09-16.67-.26-19.06-.77-8.55-5.13-8.29-5.13-12.22,0-1.88.94-3.25,3.59-3.25,3.68,0,7.35.26,10.94.26s7.35-.26,10.77-.26c2.56,0,3.59,1.37,3.59,3.25,0,3.93-3.85,3.68-4.87,12.22-.17,1.88-.34,5.73-.34,16.5,0,8.98,2.82,13.93,9.66,13.93,3.68,0,6.07-1.54,7.35-4.19.77-1.54,1.45-6.07,1.45-15.3,0-5.56-.26-12.14-2.14-16.24-1.45-3.25-3.93-4.27-3.93-6.92,0-1.88.94-3.25,3.59-3.25,2.39,0,5.21.26,7.18.26,2.39,0,5.47-.26,7.52-.26,2.56,0,3.51,1.37,3.51,3.25,0,4.02-3.76,2.91-4.45,11.46-.17,2.05-.26,6.24-.26,8.21,0,4.45.17,8.21.17,11.71Z"/>
    <path class="cls-1" d="M453.78,129.79c3.76,0,5.39,1.03,5.73,6.16.43,5.9,1.37,9.49,1.37,13.16,0,2.39-1.54,3.25-2.99,3.25-2.05,0-3.16-1.8-4.36-3.85-3.68-6.16-4.27-8.29-6.58-8.29-1.11,0-1.8.68-2.22,1.88-.43,1.28-.6,3.08-.6,7.95v7.01c0,10.17.26,15.47.68,18.46.94,6.15,5.9,6.33,5.9,9.92,0,1.62-1.45,2.99-4.02,2.99-3.51,0-8.12-.26-11.63-.26s-8.29.26-11.8.26c-2.65,0-4.02-1.37-4.02-2.99,0-3.59,5.04-3.76,5.98-9.92.43-2.99.6-8.29.6-18.46v-7.01c0-4.87-.17-6.67-.6-7.95-.43-1.2-1.11-1.88-2.22-1.88-2.31,0-2.91,2.14-6.58,8.29-1.2,2.05-2.31,3.85-4.36,3.85-1.45,0-2.99-.86-2.99-3.25,0-3.68.94-7.27,1.37-13.16.34-5.13,1.97-6.16,5.73-6.16,7.01,0,12.05.26,18.81.26s11.8-.26,18.81-.26Z"/>
  </g>
</svg>