<?xml version="1.0" encoding="UTF-8"?>
<svg id="Layer_1" data-name="Layer 1" xmlns="http://www.w3.org/2000/svg" viewBox="0 0 900 600">
  <defs>
    <style>
      .cls-1 {
        fill: none;
        stroke: #1d4d25;
        stroke-linecap: round;
        stroke-linejoin: round;
        stroke-width: 10px;
      }

      .cls-2 {
        fill: #1d4d25;
      }
    </style>
  </defs>
  <g>
    <path class="cls-2" d="M170.86,128.68c0,5.59,11.18,8.31,23.22,13.05,13.76,5.45,28.67,13.76,28.67,32.68,0,21.93-15.77,33.4-38.7,33.4-9.46,0-20.07-2.44-25.66-2.44-2.58,0-5.59,1-7.88,1-6.88,0-5.73-6.45-7.45-18.06-1.29-8.89-1.86-10.18-1.86-13.33,0-4.59,1.86-6.59,4.01-6.59,3.3,0,7.02,4.59,10.18,8.03,6.59,7.17,16.49,12.9,26.81,12.9,4.3,0,7.74-2.29,7.74-6.02,0-6.59-10.03-8.89-20.93-13.04-12.76-4.87-26.66-12.33-26.66-31.97s12.76-32.83,34.69-32.83c8.74,0,14.76,2.44,19.07,2.44,3.58,0,5.88-1.72,9.46-1.72,7.17,0,7.31,6.88,8.89,15.34,2.15,11.47,3.3,13.9,3.3,16.34,0,3.87-2.29,5.59-4.73,5.59-4.87,0-6.59-5.59-11.18-10.47-8.17-8.46-15.62-11.04-22.08-11.04-4.3,0-8.89,2.15-8.89,6.74Z"/>
    <path class="cls-2" d="M265.63,130.4c13.9,0,25.8,6.31,25.8,18.2,0,8.17-5.16,15.05-16.34,15.05-3.58,0-6.16-1.29-7.02-5.3-1.15-5.02-1.58-14.19-7.45-14.19-4.87,0-6.59,6.02-6.59,12.9,0,13.19,7.17,24.08,20.21,24.08,8.31,0,12.9-3.87,15.91-5.88,1-.72,1.86-1.15,2.72-1.15,2.58,0,3.01,2.87,3.01,5.74,0,13.47-12.76,27.24-32.4,27.24-22.94,0-36.55-16.34-36.55-36.84s14.05-39.85,38.7-39.85Z"/>
    <path class="cls-2" d="M337.31,159.35c1.15-.86,2.15-2.87,2.15-8.17s-2.44-8.6-6.31-8.6c-3.58,0-6.59,3.44-9.03,11.04-1.43,4.59-3.58,8.31-9.75,8.31-6.74,0-11.9-4.59-11.9-12.76,0-9.32,10.75-18.92,30.68-18.92,16.63,0,34.55,5.73,34.55,28.53,0,8.75-.72,13.48-.72,22.22,0,2.29.72,5.45,4.01,5.45,1,0,1.86-.29,2.87-.29,1.15,0,1.72,1.72,1.72,3.3,0,10.32-8.46,17.35-18.92,17.35-7.88,0-11.9-2.58-14.48-6.31-.43-.57-.86-1.29-1.43-1.29-.72,0-1.29.57-1.86,1.15-4.16,3.73-11.32,6.74-17.78,6.74-12.04,0-21.36-6.02-21.36-18.2,0-11.47,7.45-18.2,19.78-23.22,8.17-3.3,15.34-4.3,17.77-6.31ZM338.6,172.97c-.72,0-2.29.57-4.16,1.58-3.15,1.72-6.74,4.73-6.74,9.03,0,2.58,1.29,5.3,4.87,5.3,5.73,0,7.17-5.3,7.17-9.75,0-5.45-.57-6.16-1.15-6.16Z"/>
    <path class="cls-2" d="M456.87,183.15c0,4.01,1.15,8.03,3.58,10.32,2.72,2.58,5.02,3.15,5.02,7.02,0,3.15-2.29,5.3-7.17,5.3s-9.75-.43-13.9-.43c-5.73,0-7.74.43-14.05.43-3.73,0-5.16-2.29-5.16-5.02,0-3.87,1.29-6.88,2.01-8.89,1.43-4.01,2.72-16.77,2.72-26.81,0-11.18-2.72-15.91-8.89-15.91-2.58,0-7.6,1.72-7.6,10.46v20.93c0,7.03.14,9.46,2.29,12.33s4.73,3.44,4.73,7.6c0,3.15-1.72,5.3-6.59,5.3s-9.89-.43-14.05-.43c-5.73,0-11.04.43-17.34.43-3.73,0-5.16-2.29-5.16-5.02,0-3.87,3.01-6.16,4.3-7.88,3.58-5.02,3.87-9.89,3.87-13.62v-21.36c0-5.16-3.15-7.45-4.59-8.46-1.58-1.15-2.87-2.15-2.87-4.59,0-4.59,5.88-5.3,13.04-8.6,9.17-4.3,10.46-5.88,13.33-5.88,3.58,0,5.45,1.43,6.88,6.31.43,1.72,1,3.15,2.15,3.15,1.86,0,9.89-9.46,22.65-9.46,17.06,0,22.65,10.46,22.65,25.23,0,9.32-1.86,21.93-1.86,27.52Z"/>
    <path class="cls-2" d="M547.77,183.15c0,4.01,1.15,8.03,3.58,10.32,2.72,2.58,5.02,3.15,5.02,7.02,0,3.15-2.29,5.3-7.17,5.3s-9.75-.43-13.9-.43c-5.73,0-7.74.43-14.05.43-3.73,0-5.16-2.29-5.16-5.02,0-3.87,1.29-6.88,2.01-8.89,1.43-4.01,2.72-16.77,2.72-26.81,0-11.18-2.72-15.91-8.89-15.91-2.58,0-7.6,1.72-7.6,10.46v20.93c0,7.03.14,9.46,2.29,12.33s4.73,3.44,4.73,7.6c0,3.15-1.72,5.3-6.59,5.3s-9.89-.43-14.05-.43c-5.73,0-11.04.43-17.34.43-3.73,0-5.16-2.29-5.16-5.02,0-3.87,3.01-6.16,4.3-7.88,3.58-5.02,3.87-9.89,3.87-13.62v-21.36c0-5.16-3.15-7.45-4.59-8.46-1.58-1.15-2.87-2.15-2.87-4.59,0-4.59,5.88-5.3,13.04-8.6,9.17-4.3,10.46-5.88,13.33-5.88,3.58,0,5.45,1.43,6.88,6.31.43,1.72,1,3.15,2.15,3.15,1.86,0,9.89-9.46,22.65-9.46,17.06,0,22.65,10.46,22.65,25.23,0,9.32-1.86,21.93-1.86,27.52Z"/>
    <path class="cls-2" d="M594.08,173.55c-1.43.14-2.01.43-2.01,1.43,0,3.87,4.3,9.46,14.34,9.46,8.74,0,13.76-3.87,17.34-5.88,1.15-.72,2.29-1.15,3.15-1.15,1.72,0,2.72,1.58,2.72,4.87,0,10.75-12.47,24.8-32.68,24.8-23.65,0-37.13-15.19-37.13-36.7s15.62-39.99,39.42-39.99c22.51,0,29.1,17.35,29.1,25.8,0,5.73-3.15,9.03-7.6,11.18-7.74,3.73-21.07,5.59-26.66,6.16ZM596.23,144.59c-5.3,0-8.31,5.73-8.31,11.32,0,3.44,1.15,5.45,3.58,5.45,2.72,0,8.03-2.15,10.18-6.16.57-1.15.86-2.29.86-3.73,0-3.87-2.44-6.88-6.31-6.88Z"/>
    <path class="cls-2" d="M713.22,183.15c0,4.01,1.15,8.03,3.58,10.32,2.72,2.58,5.02,3.15,5.02,7.02,0,3.15-2.29,5.3-7.17,5.3s-9.75-.43-13.9-.43c-5.73,0-7.74.43-14.05.43-3.73,0-5.16-2.29-5.16-5.02,0-3.87,1.29-6.88,2.01-8.89,1.43-4.01,2.72-16.77,2.72-26.81,0-11.18-2.72-15.91-8.89-15.91-2.58,0-7.6,1.72-7.6,10.46v20.93c0,7.03.14,9.46,2.29,12.33,2.15,2.87,4.73,3.44,4.73,7.6,0,3.15-1.72,5.3-6.59,5.3s-9.89-.43-14.05-.43c-5.73,0-11.04.43-17.34.43-3.73,0-5.16-2.29-5.16-5.02,0-3.87,3.01-6.16,4.3-7.88,3.58-5.02,3.87-9.89,3.87-13.62v-21.36c0-5.16-3.15-7.45-4.59-8.46-1.58-1.15-2.87-2.15-2.87-4.59,0-4.59,5.88-5.3,13.04-8.6,9.17-4.3,10.46-5.88,13.33-5.88,3.58,0,5.45,1.43,6.88,6.31.43,1.72,1,3.15,2.15,3.15,1.86,0,9.89-9.46,22.65-9.46,17.06,0,22.65,10.46,22.65,25.23,0,9.32-1.86,21.93-1.86,27.52Z"/>
    <path class="cls-2" d="M742.76,206.23c-7.45,0-14.19-4.59-14.19-13.76,0-10.03,8.03-15.91,15.91-15.91,7.31,0,14.33,4.87,14.33,14.19s-7.6,15.48-16.05,15.48Z"/>
    <path class="cls-2" d="M145.41,272.05c0,5.59,11.18,8.31,23.22,13.05,13.76,5.45,28.67,13.76,28.67,32.68,0,21.93-15.77,33.4-38.7,33.4-9.46,0-20.07-2.44-25.66-2.44-2.58,0-5.59,1-7.88,1-6.88,0-5.73-6.45-7.45-18.06-1.29-8.89-1.86-10.18-1.86-13.33,0-4.59,1.86-6.59,4.01-6.59,3.3,0,7.02,4.59,10.18,8.03,6.59,7.17,16.49,12.9,26.81,12.9,4.3,0,7.74-2.29,7.74-6.02,0-6.59-10.03-8.89-20.93-13.04-12.76-4.87-26.66-12.33-26.66-31.97s12.76-32.83,34.69-32.83c8.74,0,14.76,2.44,19.07,2.44,3.58,0,5.88-1.72,9.46-1.72,7.17,0,7.31,6.88,8.89,15.34,2.15,11.47,3.3,13.9,3.3,16.34,0,3.87-2.29,5.59-4.73,5.59-4.87,0-6.59-5.59-11.18-10.47-8.17-8.46-15.62-11.04-22.08-11.04-4.3,0-8.89,2.15-8.89,6.74Z"/>
    <path class="cls-2" d="M239.17,302.72c1.15-.86,2.15-2.87,2.15-8.17s-2.44-8.6-6.31-8.6c-3.58,0-6.59,3.44-9.03,11.04-1.43,4.59-3.58,8.31-9.75,8.31-6.74,0-11.9-4.59-11.9-12.76,0-9.32,10.75-18.92,30.68-18.92,16.63,0,34.55,5.73,34.55,28.53,0,8.75-.72,13.48-.72,22.22,0,2.29.72,5.45,4.01,5.45,1,0,1.86-.29,2.87-.29,1.15,0,1.72,1.72,1.72,3.3,0,10.32-8.46,17.35-18.92,17.35-7.88,0-11.9-2.58-14.48-6.31-.43-.57-.86-1.29-1.43-1.29-.72,0-1.29.57-1.86,1.15-4.16,3.73-11.32,6.74-17.77,6.74-12.04,0-21.36-6.02-21.36-18.2,0-11.47,7.45-18.2,19.78-23.22,8.17-3.3,15.34-4.3,17.77-6.31ZM240.46,316.34c-.72,0-2.29.57-4.16,1.58-3.15,1.72-6.74,4.73-6.74,9.03,0,2.58,1.29,5.3,4.87,5.3,5.73,0,7.17-5.3,7.17-9.75,0-5.45-.57-6.16-1.15-6.16Z"/>
    <path class="cls-2" d="M377.51,273.77c17.06,0,22.08,10.46,22.08,25.23,0,9.32-1.72,21.93-1.72,27.52,0,4.01,1.15,8.03,3.44,10.32,2.58,2.58,4.87,3.15,4.87,7.02,0,3.15-2.29,5.3-7.17,5.3-4.59,0-9.75-.43-13.62-.43-5.73,0-7.02.43-13.33.43-3.58,0-5.02-2.29-5.02-5.02,0-3.87,1.15-6.88,1.86-8.89,1.43-4.01,2.58-16.77,2.58-26.81,0-11.18-2.72-15.91-8.17-15.91-1.86,0-6.88,1.86-6.88,10.61v23.37c0,4.01.14,7.88,2.29,10.32,2.29,2.58,4.16,3.15,4.16,7.02,0,3.15-2.29,5.3-7.17,5.3-4.59,0-8.31-.43-12.18-.43-5.73,0-7.02.43-13.33.43-3.58,0-5.02-2.29-5.02-5.02,0-3.87,1.15-6.88,1.86-8.89,1.43-4.01,2.58-16.77,2.58-26.81,0-11.18-2.87-15.91-8.31-15.91-1.86,0-6.74,1.72-6.74,10.46v20.93c0,7.03.14,9.46,2.15,12.33,2.01,2.87,4.44,3.44,4.44,7.6,0,3.15-1.72,5.3-6.45,5.3s-9.17-.43-13.19-.43c-5.59,0-11.18.43-17.34.43-3.58,0-5.02-2.29-5.02-5.02,0-3.87,3.01-6.16,4.16-7.88,3.44-5.02,3.87-9.89,3.87-13.62v-21.36c0-5.16-2.72-7.31-4.16-8.31-1.15-.86-3.15-1.86-3.15-4.73,0-4.59,6.16-5.3,13.33-8.6,9.17-4.3,10.18-5.88,12.9-5.88,3.58,0,5.59,1.43,6.88,6.31.43,1.72,1,3.15,2.01,3.15,1.86,0,9.32-9.46,20.64-9.46,7.74,0,12.61,2.58,16.05,6.31,1.72,1.86,2.29,3.15,3.3,3.15,1.86,0,9.89-9.46,22.51-9.46Z"/>
    <path class="cls-2" d="M507.26,273.77c17.06,0,22.08,10.46,22.08,25.23,0,9.32-1.72,21.93-1.72,27.52,0,4.01,1.15,8.03,3.44,10.32,2.58,2.58,4.87,3.15,4.87,7.02,0,3.15-2.29,5.3-7.17,5.3-4.59,0-9.75-.43-13.62-.43-5.73,0-7.02.43-13.33.43-3.58,0-5.02-2.29-5.02-5.02,0-3.87,1.15-6.88,1.86-8.89,1.43-4.01,2.58-16.77,2.58-26.81,0-11.18-2.72-15.91-8.17-15.91-1.86,0-6.88,1.86-6.88,10.61v23.37c0,4.01.14,7.88,2.29,10.32,2.29,2.58,4.16,3.15,4.16,7.02,0,3.15-2.29,5.3-7.17,5.3-4.59,0-8.31-.43-12.18-.43-5.73,0-7.02.43-13.33.43-3.58,0-5.02-2.29-5.02-5.02,0-3.87,1.15-6.88,1.86-8.89,1.43-4.01,2.58-16.77,2.58-26.81,0-11.18-2.87-15.91-8.31-15.91-1.86,0-6.74,1.72-6.74,10.46v20.93c0,7.03.14,9.46,2.15,12.33,2.01,2.87,4.44,3.44,4.44,7.6,0,3.15-1.72,5.3-6.45,5.3s-9.17-.43-13.19-.43c-5.59,0-11.18.43-17.34.43-3.58,0-5.02-2.29-5.02-5.02,0-3.87,3.01-6.16,4.16-7.88,3.44-5.02,3.87-9.89,3.87-13.62v-21.36c0-5.16-2.72-7.31-4.16-8.31-1.15-.86-3.15-1.86-3.15-4.73,0-4.59,6.16-5.3,13.33-8.6,9.17-4.3,10.18-5.88,12.9-5.88,3.58,0,5.59,1.43,6.88,6.31.43,1.72,1,3.15,2.01,3.15,1.86,0,9.32-9.46,20.64-9.46,7.74,0,12.61,2.58,16.05,6.31,1.72,1.86,2.29,3.15,3.3,3.15,1.86,0,9.89-9.46,22.51-9.46Z"/>
    <path class="cls-2" d="M573.65,316.92c-1.43.14-2.01.43-2.01,1.43,0,3.87,4.3,9.46,14.34,9.46,8.74,0,13.76-3.87,17.34-5.88,1.15-.72,2.29-1.15,3.15-1.15,1.72,0,2.72,1.58,2.72,4.87,0,10.75-12.47,24.8-32.68,24.8-23.65,0-37.13-15.19-37.13-36.7s15.62-39.99,39.42-39.99c22.51,0,29.1,17.35,29.1,25.8,0,5.73-3.15,9.03-7.6,11.18-7.74,3.73-21.07,5.59-26.66,6.16ZM575.8,287.96c-5.3,0-8.31,5.73-8.31,11.32,0,3.44,1.15,5.45,3.58,5.45,2.72,0,8.03-2.15,10.18-6.16.57-1.15.86-2.29.86-3.73,0-3.87-2.44-6.88-6.31-6.88Z"/>
    <path class="cls-2" d="M647.92,281.08v42.86c0,7.03,1,9.46,3.15,12.33,2.15,2.87,4.73,3.44,4.73,7.6,0,3.15-1.72,5.3-6.59,5.3s-10.75-.43-14.91-.43c-5.73,0-11.04.43-17.34.43-3.73,0-5.16-2.29-5.16-5.02,0-3.87,3.01-6.16,4.3-7.88,3.58-5.02,3.87-9.89,3.87-13.62v-52.61c0-4.16-3.01-6.45-4.44-7.45-1.58-1.15-3.01-2.15-3.01-4.59,0-4.16,6.02-5.02,13.33-8.03,7.45-3.01,13.33-6.59,17.2-6.59,3.15,0,5.59,1.58,5.59,5.3,0,10.75-.72,9.75-.72,32.4Z"/>
    <path class="cls-2" d="M738.67,326.52c0,4.01,1.15,8.03,3.58,10.32,2.72,2.58,5.02,3.15,5.02,7.02,0,3.15-2.29,5.3-7.17,5.3s-9.75-.43-13.9-.43c-5.73,0-7.74.43-14.05.43-3.73,0-5.16-2.29-5.16-5.02,0-3.87,1.29-6.88,2.01-8.89,1.43-4.01,2.72-16.77,2.72-26.81,0-11.18-2.72-15.91-8.89-15.91-2.58,0-7.6,1.72-7.6,10.46v20.93c0,7.03.14,9.46,2.29,12.33s4.73,3.44,4.73,7.6c0,3.15-1.72,5.3-6.59,5.3s-9.89-.43-14.05-.43c-5.73,0-11.04.43-17.34.43-3.73,0-5.16-2.29-5.16-5.02,0-3.87,3.01-6.16,4.3-7.88,3.58-5.02,3.87-9.89,3.87-13.62v-21.36c0-5.16-3.15-7.45-4.59-8.46-1.58-1.15-2.87-2.15-2.87-4.59,0-4.59,5.88-5.3,13.04-8.6,9.17-4.3,10.46-5.88,13.33-5.88,3.58,0,5.45,1.43,6.88,6.31.43,1.72,1,3.15,2.15,3.15,1.86,0,9.89-9.46,22.65-9.46,17.06,0,22.65,10.46,22.65,25.23,0,9.32-1.86,21.93-1.86,27.52Z"/>
    <path class="cls-2" d="M768.21,349.6c-7.45,0-14.19-4.59-14.19-13.76,0-10.03,8.03-15.91,15.91-15.91,7.31,0,14.33,4.87,14.33,14.19s-7.6,15.48-16.05,15.48Z"/>
    <path class="cls-2" d="M270.72,415.42c0,5.59,11.18,8.31,23.22,13.05,13.76,5.45,28.67,13.76,28.67,32.68,0,21.93-15.77,33.4-38.7,33.4-9.46,0-20.07-2.44-25.66-2.44-2.58,0-5.59,1-7.88,1-6.88,0-5.73-6.45-7.45-18.06-1.29-8.89-1.86-10.18-1.86-13.33,0-4.59,1.86-6.59,4.01-6.59,3.3,0,7.02,4.59,10.18,8.03,6.59,7.17,16.49,12.9,26.81,12.9,4.3,0,7.74-2.29,7.74-6.02,0-6.59-10.03-8.89-20.93-13.04-12.76-4.87-26.66-12.33-26.66-31.97s12.76-32.83,34.69-32.83c8.74,0,14.76,2.44,19.07,2.44,3.58,0,5.88-1.72,9.46-1.72,7.17,0,7.31,6.88,8.89,15.34,2.15,11.47,3.3,13.9,3.3,16.34,0,3.87-2.29,5.59-4.73,5.59-4.87,0-6.59-5.59-11.18-10.47-8.17-8.46-15.62-11.04-22.08-11.04-4.3,0-8.89,2.15-8.89,6.74Z"/>
    <path class="cls-2" d="M364.48,446.09c1.15-.86,2.15-2.87,2.15-8.17s-2.44-8.6-6.31-8.6c-3.58,0-6.59,3.44-9.03,11.04-1.43,4.59-3.58,8.31-9.75,8.31-6.74,0-11.9-4.59-11.9-12.76,0-9.32,10.75-18.92,30.68-18.92,16.63,0,34.55,5.73,34.55,28.53,0,8.75-.72,13.48-.72,22.22,0,2.29.72,5.45,4.01,5.45,1,0,1.86-.29,2.87-.29,1.15,0,1.72,1.72,1.72,3.3,0,10.32-8.46,17.35-18.92,17.35-7.88,0-11.9-2.58-14.48-6.31-.43-.57-.86-1.29-1.43-1.29-.72,0-1.29.57-1.86,1.15-4.16,3.73-11.32,6.74-17.77,6.74-12.04,0-21.36-6.02-21.36-18.2,0-11.47,7.45-18.2,19.78-23.22,8.17-3.3,15.34-4.3,17.77-6.31ZM362.11,397.36c0,7.74-6.45,13.19-13.9,13.19-5.88,0-11.04-4.3-11.04-10.89s5.3-13.76,13.19-13.76c6.88,0,11.75,4.73,11.75,11.47ZM365.77,459.71c-.72,0-2.29.57-4.16,1.58-3.15,1.72-6.74,4.73-6.74,9.03,0,2.58,1.29,5.3,4.87,5.3,5.73,0,7.17-5.3,7.17-9.75,0-5.45-.57-6.16-1.15-6.16ZM390.78,397.36c0,7.74-6.45,13.19-13.9,13.19-5.88,0-11.04-4.3-11.04-10.89s5.3-13.76,13.19-13.76c6.88,0,11.75,4.73,11.75,11.47Z"/>
    <path class="cls-2" d="M412.37,413.41c0-4.16-3.01-6.45-4.44-7.45-1.58-1.15-3.01-2.15-3.01-4.59,0-4.16,6.02-5.02,13.33-8.03,7.45-3.01,13.33-6.59,17.2-6.59,3.15,0,5.59,1.58,5.59,5.3,0,4.87-1.86,15.34-1.86,31.54,0,2.58.57,3.01,1.15,3.01,1.86,0,9.89-9.46,22.65-9.46,17.06,0,22.65,10.46,22.65,25.23,0,9.32-1.86,21.93-1.86,27.52,0,4.01,1.15,8.03,3.58,10.32,2.72,2.58,5.02,3.15,5.02,7.02,0,3.15-2.29,5.3-7.17,5.3s-9.75-.43-13.9-.43c-5.73,0-7.74.43-14.05.43-3.73,0-5.16-2.29-5.16-5.02,0-3.87,1.29-6.88,2.01-8.89,1.43-4.01,2.72-16.77,2.72-26.81,0-11.18-2.72-15.91-8.89-15.91-2.58,0-7.6,1.72-7.6,10.46v20.93c0,7.03.14,9.46,2.29,12.33s4.73,3.44,4.73,7.6c0,3.15-1.72,5.3-6.59,5.3s-9.89-.43-14.05-.43c-5.73,0-11.04.43-17.34.43-3.73,0-5.16-2.29-5.16-5.02,0-3.87,3.01-6.16,4.3-7.88,3.58-5.02,3.87-9.89,3.87-13.62v-52.61Z"/>
    <path class="cls-2" d="M530.07,460.29c-1.43.14-2.01.43-2.01,1.43,0,3.87,4.3,9.46,14.34,9.46,8.74,0,13.76-3.87,17.34-5.88,1.15-.72,2.29-1.15,3.15-1.15,1.72,0,2.72,1.58,2.72,4.87,0,10.75-12.47,24.8-32.68,24.8-23.65,0-37.13-15.19-37.13-36.7s15.62-39.99,39.42-39.99c22.51,0,29.1,17.35,29.1,25.8,0,5.73-3.15,9.03-7.6,11.18-7.74,3.73-21.07,5.59-26.66,6.16ZM532.22,431.33c-5.3,0-8.31,5.73-8.31,11.32,0,3.44,1.15,5.45,3.58,5.45,2.72,0,8.03-2.15,10.18-6.16.57-1.15.86-2.29.86-3.73,0-3.87-2.44-6.88-6.31-6.88Z"/>
    <path class="cls-2" d="M649.2,469.89c0,4.01,1.15,8.03,3.58,10.32,2.72,2.58,5.02,3.15,5.02,7.02,0,3.15-2.29,5.3-7.17,5.3s-9.75-.43-13.9-.43c-5.73,0-7.74.43-14.05.43-3.73,0-5.16-2.29-5.16-5.02,0-3.87,1.29-6.88,2.01-8.89,1.43-4.01,2.72-16.77,2.72-26.81,0-11.18-2.72-15.91-8.89-15.91-2.58,0-7.6,1.72-7.6,10.46v20.93c0,7.03.14,9.46,2.29,12.33,2.15,2.87,4.73,3.44,4.73,7.6,0,3.15-1.72,5.3-6.59,5.3s-9.89-.43-14.05-.43c-5.73,0-11.04.43-17.34.43-3.73,0-5.16-2.29-5.16-5.02,0-3.87,3.01-6.16,4.3-7.88,3.58-5.02,3.87-9.89,3.87-13.62v-21.36c0-5.16-3.15-7.45-4.59-8.46-1.58-1.15-2.87-2.15-2.87-4.59,0-4.59,5.88-5.3,13.04-8.6,9.17-4.3,10.46-5.88,13.33-5.88,3.58,0,5.45,1.43,6.88,6.31.43,1.72,1,3.15,2.15,3.15,1.86,0,9.89-9.46,22.65-9.46,17.06,0,22.65,10.46,22.65,25.23,0,9.32-1.86,21.93-1.86,27.52Z"/>
    <path class="cls-2" d="M678.75,492.97c-7.45,0-14.19-4.59-14.19-13.76,0-10.03,8.03-15.91,15.91-15.91,7.31,0,14.33,4.87,14.33,14.19s-7.6,15.48-16.05,15.48Z"/>
  </g>
  <polyline class="cls-1" points="50.24 150.72 50.24 50.24 150.72 50.24"/>
  <polyline class="cls-1" points="849.76 450.55 849.76 551.03 749.28 551.03"/>
</svg>